# xmcd
#
# Track frame offsets: 
#        150
#        12093
#        34593
#        61516
#        92470
#
# Disc length: 1367 seconds
#
# Revision: 0
# Processed by: cddbd v1.5.2PL0 Copyright (c) Steve Scherf et al.
# Submitted via: ExactAudioCopy v0.99pb5
#
DISCID=27055505
DTITLE=Stormfrost - Sons of the hate
DYEAR=2005
DGENRE=Black Metal
TTITLE0=Intro (Preparing for Storm)
TTITLE1=Sons of the Hate
TTITLE2=Total Black Thought
TTITLE3=True Black Metal
TTITLE4=Outro (Eternal rest)
EXTD=
EXTT0=
EXTT1=
EXTT2=
EXTT3=
EXTT4=
PLAYORDER=
